<svg width="1425" height="487" viewBox="0 0 1425 487" fill="none" xmlns="http://www.w3.org/2000/svg">
<path d="M283.97 35.98C169.75 35.98 76.82 128.91 76.82 243.13C76.82 357.35 169.75 450.28 283.97 450.28C357.02 450.28 422.04 412.42 462.33 346.4L465.06 341.92L404.09 306.11L401.51 310.65C375.12 357.03 331.18 384.72 283.97 384.72C251.53 384.72 221.29 373.02 196.51 350.89C174.81 331.51 159.14 305.51 151.94 277.13H489.23L489.46 272.22C489.87 263.62 490.28 257.82 490.59 253.58C490.91 249.13 491.12 246.18 491.12 243.11C491.12 128.89 398.19 35.96 283.97 35.96V35.98ZM151.92 209.94C159.11 181.21 174.79 154.95 196.52 135.45C221.25 113.25 251.49 101.52 283.98 101.52C316.47 101.52 345.54 113.25 369.83 134.56C392.19 154.18 408.17 180.75 415.26 209.94H151.92Z" fill="white"/>
<path d="M1284.03 52.47L1162.2 357.04L1040.37 52.47H959L1121.69 433.78H1202.7L1365.4 52.47H1284.03Z" fill="white"/>
<path d="M869.83 178.68H865.74L866.74 180.44L869.83 178.68Z" fill="white"/>
<path d="M864.19 311.02C851.06 334.09 834.18 352.13 814.01 364.63C793.88 377.11 771.5 383.44 747.47 383.44C674.54 383.44 617.41 321.97 617.41 243.49C617.41 165.01 674.54 103.54 747.47 103.54C751.89 103.54 756.25 103.76 760.55 104.18V36.71C756.49 36.47 752.41 36.33 748.29 36.33C634.07 36.33 541.14 129.26 541.14 243.48C541.14 357.7 634.07 450.63 748.29 450.63C821.34 450.63 886.36 412.77 926.65 346.75L929.42 342.21L866.73 306.53L864.18 311.01L864.19 311.02Z" fill="white"/>
<path d="M864 188.83C900.27 188.83 929.67 159.43 929.67 123.16C929.67 86.89 900.27 57.49 864 57.49C827.73 57.49 798.33 86.89 798.33 123.16C798.33 159.43 827.73 188.83 864 188.83Z" fill="#E50914"/>
</svg>
